<?xml version="1.0" encoding="UTF-8" standalone="no"?>
<svg
   version="1.0"
   width="1024pt"
   height="1024pt"
   viewBox="0 0 1024 1024"
   preserveAspectRatio="xMidYMid"
   id="svg3"
   sodipodi:docname="favicon.svg"
   inkscape:export-filename="logo(1).png"
   inkscape:export-xdpi="96"
   inkscape:export-ydpi="96"
   inkscape:version="1.4.2 (ebf0e940d0, 2025-05-08)"
   xmlns:inkscape="http://www.inkscape.org/namespaces/inkscape"
   xmlns:sodipodi="http://sodipodi.sourceforge.net/DTD/sodipodi-0.dtd"
   xmlns="http://www.w3.org/2000/svg"
   xmlns:svg="http://www.w3.org/2000/svg">
  <defs
     id="defs3" />
  <sodipodi:namedview
     id="namedview3"
     pagecolor="#505050"
     bordercolor="#ffffff"
     borderopacity="1"
     inkscape:showpageshadow="0"
     inkscape:pageopacity="0"
     inkscape:pagecheckerboard="1"
     inkscape:deskcolor="#d1d1d1"
     inkscape:document-units="pt"
     inkscape:export-bgcolor="#fafaff00"
     inkscape:zoom="0.58520506"
     inkscape:cx="682.66669"
     inkscape:cy="682.66669"
     inkscape:window-width="1920"
     inkscape:window-height="1012"
     inkscape:window-x="0"
     inkscape:window-y="0"
     inkscape:window-maximized="1"
     inkscape:current-layer="svg3">
    <inkscape:page
       x="0"
       y="0"
       width="1024"
       height="1024"
       id="page2"
       margin="0"
       bleed="0" />
  </sodipodi:namedview>
  <!-- Circular white background for better visibility on tabs -->
  <circle
     cx="512"
     cy="512"
     r="512"
     fill="#ffffff"
     id="circle1"
     style="fill:#fafaff;fill-opacity:1" />
  <g
     transform="matrix(0.1,0,0,-0.1,0,1024)"
     fill="#000000"
     stroke="none"
     id="g3"
     style="fill:#7c4dff;fill-opacity:1">
    <path
       d="m 4905,9316 c -206,-48 -373,-143 -516,-294 -104,-109 -172,-223 -221,-367 -88,-258 -72,-505 47,-750 284,-583 1027,-754 1530,-351 171,136 290,317 347,527 31,113 33,384 4,494 -23,87 -90,232 -146,316 -94,139 -261,280 -415,350 -139,63 -225,81 -405,85 -117,3 -183,0 -225,-10 z"
       id="path1"
       style="fill:#7c4dff;fill-opacity:1" />
    <path
       d="m 2700,6998 c -35,-24 -102,-158 -467,-928 -349,-737 -476,-1084 -529,-1450 -22,-155 -15,-442 15,-582 130,-600 566,-1038 1161,-1165 66,-14 128,-18 275,-18 169,1 202,4 301,27 130,31 300,97 401,156 434,254 704,714 705,1202 0,156 -12,252 -52,405 -57,217 -63,228 -664,1360 -102,192 -186,351 -186,352 0,2 655,3 1455,3 800,0 1455,-2 1455,-5 0,-3 -137,-268 -304,-588 -405,-777 -461,-890 -506,-1026 -57,-172 -71,-248 -77,-427 -7,-195 9,-311 67,-485 69,-208 173,-381 323,-536 207,-214 448,-348 748,-415 137,-30 417,-33 546,-5 374,81 720,313 927,625 194,292 287,656 256,1006 -29,331 -121,631 -355,1161 -81,183 -407,869 -532,1118 -94,189 -107,210 -138,223 -30,12 -371,14 -2413,14 H 2733 Z m 627,-1173 c 542,-1046 622,-1220 659,-1423 74,-417 -162,-819 -559,-950 -427,-142 -885,49 -1085,453 -82,164 -107,296 -99,512 13,347 129,651 596,1561 107,210 200,381 204,379 5,-1 132,-241 284,-532 z m 3941,423 c 111,-209 470,-932 525,-1058 123,-282 190,-507 207,-691 35,-406 -116,-744 -424,-944 -235,-153 -499,-186 -764,-95 -214,73 -414,249 -501,442 -54,119 -65,178 -65,348 0,282 2,288 694,1620 70,135 155,300 189,368 34,67 65,122 70,122 5,0 36,-51 69,-112 z"
       id="path2"
       style="fill:#7c4dff;fill-opacity:1" />
    <path
       d="m 1764,2965 c 14,-58 79,-212 142,-336 210,-414 577,-820 1004,-1108 502,-340 1050,-543 1700,-633 145,-19 208,-22 515,-23 367,0 439,5 705,51 865,148 1653,588 2177,1214 186,222 340,479 426,710 62,167 62,166 -32,77 -398,-373 -934,-722 -1449,-941 -1168,-498 -2353,-512 -3560,-40 -544,213 -1069,543 -1531,963 -92,84 -103,92 -97,66 z"
       id="path3"
       style="fill:#7c4dff;fill-opacity:1" />
  </g>
</svg>
